<svg xmlns="http://www.w3.org/2000/svg" viewBox="0 0 640 640" role="img" aria-labelledby="title desc">
  <title id="title">BH DataDesign logo</title>
  <desc id="desc">Stylized BJ/BH monogram with red accent and DataDesign wordmark</desc>
  <defs>
    <linearGradient id="darkMetal" x1="0" y1="0" x2="1" y2="1">
      <stop offset="0%" stop-color="#1c2734" />
      <stop offset="60%" stop-color="#0d1520" />
      <stop offset="100%" stop-color="#05090f" />
    </linearGradient>
    <linearGradient id="silver" x1="0" y1="0" x2="0" y2="1">
      <stop offset="0%" stop-color="#dbe3ea" />
      <stop offset="100%" stop-color="#8994a0" />
    </linearGradient>
    <linearGradient id="red" x1="0" y1="0" x2="1" y2="1">
      <stop offset="0%" stop-color="#ff2333" />
      <stop offset="100%" stop-color="#8c0011" />
    </linearGradient>
    <filter id="softShadow" x="-20%" y="-20%" width="140%" height="140%">
      <feDropShadow dx="0" dy="8" stdDeviation="8" flood-opacity="0.28" />
    </filter>
  </defs>

  <rect width="640" height="640" fill="#f4f4f4" />

  <g filter="url(#softShadow)">
    <path d="M108 184h162c55 0 86 25 86 64 0 28-16 49-43 57 34 7 55 30 55 65 0 49-38 77-104 77H84l24-263zm74 54-7 72h86c26 0 39-13 39-35 0-24-14-37-41-37h-77zm-12 125-8 84h98c30 0 45-15 45-41 0-28-17-43-49-43h-86z" fill="url(#darkMetal)" stroke="#1f2937" stroke-width="4"/>
    <path d="M360 176h58l-49 271h-58z" fill="url(#darkMetal)" stroke="#1f2937" stroke-width="4"/>
    <path d="M430 189h54l-43 258h-55z" fill="url(#silver)" stroke="#4b5563" stroke-width="4"/>
    <path d="M344 424 409 235h62l-68 189z" fill="url(#red)" stroke="#7f1d1d" stroke-width="3"/>
    <path d="M236 478h230c-18 26-51 40-92 40H197z" fill="url(#red)" opacity="0.85"/>
  </g>

  <text x="78" y="586" font-family="Inter, Segoe UI, Arial, sans-serif" font-size="86" font-weight="800" fill="#0a0f18">DataDesign</text>
</svg>
